<?xml version="1.0" encoding="utf-8"?>
<!-- Generator: Adobe Illustrator 25.4.1, SVG Export Plug-In . SVG Version: 6.00 Build 0)  -->
<svg version="1.1" id="Layer_1" xmlns="http://www.w3.org/2000/svg" xmlns:xlink="http://www.w3.org/1999/xlink" x="0px" y="0px"
	 viewBox="0 0 142.18 40.4" style="enable-background:new 0 0 142.18 40.4;" xml:space="preserve">
<g>
	<g>
		<path d="M1.78,17V3h8.42v1.8H3.74v4.16h5.82v1.76H3.74v4.48h6.5V17H1.78z"/>
		<path d="M19.84,17.3c-1.08,0-2.03-0.22-2.85-0.67c-0.82-0.45-1.46-1.07-1.91-1.88s-0.68-1.74-0.68-2.79V3h1.96v8.96
			c0,0.69,0.15,1.31,0.45,1.84c0.3,0.53,0.71,0.95,1.24,1.24c0.53,0.29,1.14,0.44,1.83,0.44c0.69,0,1.31-0.15,1.84-0.44
			c0.53-0.29,0.95-0.71,1.24-1.24c0.29-0.53,0.44-1.15,0.44-1.84V3h1.98v8.96c0,1.05-0.23,1.98-0.69,2.79s-1.11,1.43-1.94,1.88
			C21.92,17.08,20.95,17.3,19.84,17.3z"/>
		<path d="M36.08,17.24c-1.41,0-2.67-0.31-3.77-0.93s-1.96-1.47-2.58-2.56c-0.62-1.09-0.93-2.33-0.93-3.73
			c0-1.43,0.31-2.68,0.93-3.77c0.62-1.09,1.48-1.94,2.58-2.56s2.36-0.93,3.77-0.93c0.77,0,1.52,0.12,2.23,0.37
			c0.71,0.25,1.36,0.59,1.94,1.02c0.58,0.43,1.05,0.93,1.41,1.49l-1.58,1.04c-0.27-0.41-0.61-0.78-1.04-1.1
			c-0.43-0.32-0.9-0.57-1.41-0.75c-0.51-0.18-1.03-0.27-1.55-0.27c-1.03,0-1.94,0.23-2.73,0.7c-0.79,0.47-1.42,1.11-1.87,1.92
			c-0.45,0.81-0.68,1.76-0.68,2.84c0,1.05,0.22,1.99,0.67,2.8c0.45,0.81,1.07,1.45,1.88,1.92c0.81,0.47,1.73,0.7,2.77,0.7
			c0.84,0,1.59-0.17,2.25-0.52c0.66-0.35,1.18-0.83,1.56-1.46c0.38-0.63,0.57-1.35,0.57-2.18l1.9-0.18c0,1.24-0.27,2.32-0.81,3.24
			s-1.28,1.63-2.23,2.14C38.41,16.99,37.32,17.24,36.08,17.24z M37.1,11.4V9.76h5.3v1.44l-1,0.2H37.1z"/>
		<path d="M45.84,17V3h8.42v1.8H47.8v4.16h5.82v1.76H47.8v4.48h6.5V17H45.84z"/>
		<path d="M58.66,17V3h2.02l7.92,10.72V3h1.98v14H68.6L60.62,6.18V17H58.66z"/>
		<path d="M75.14,17V3h1.96v14H75.14z"/>
		<path d="M80.06,17L85.7,3h2l-5.54,14H80.06z M82.72,13.26V11.5h8.06v1.76H82.72z M91.34,17L85.8,3h2l5.64,14H91.34z"/>
		<path d="M1.78,36V22h1.9v14H1.78z M3.06,31.56l-0.58-2.08L9.62,22h2.5L3.06,31.56z M9.96,36l-5.7-7.12l1.34-1.24L12.38,36H9.96z"
			/>
		<path d="M20.52,36.3c-1.08,0-2.03-0.22-2.85-0.67c-0.82-0.45-1.46-1.07-1.91-1.88s-0.68-1.74-0.68-2.79V22h1.96v8.96
			c0,0.69,0.15,1.31,0.45,1.84c0.3,0.53,0.71,0.95,1.24,1.24c0.53,0.29,1.14,0.44,1.83,0.44c0.69,0,1.31-0.15,1.84-0.44
			c0.53-0.29,0.95-0.71,1.24-1.24c0.29-0.53,0.44-1.15,0.44-1.84V22h1.98v8.96c0,1.05-0.23,1.98-0.69,2.79s-1.11,1.43-1.94,1.88
			C22.6,36.08,21.63,36.3,20.52,36.3z"/>
		<path d="M29.5,36v-1.84l8.48-10.32h-8.42V22H40.5v1.84l-8.48,10.32h8.42V36H29.5z"/>
		<path d="M44.16,36V22h2.02l7.92,10.72V22h1.98v14H54.1l-7.98-10.82V36H44.16z"/>
		<path d="M60.64,36V22h8.42v1.8H62.6v4.16h5.82v1.76H62.6v4.48h6.5V36H60.64z"/>
		<path d="M76.3,36V23.8h-4.38V22h10.74v1.8h-4.38V36H76.3z"/>
		<path d="M90.2,36.24c-0.75,0-1.42-0.09-2.03-0.26c-0.61-0.17-1.13-0.41-1.58-0.71c-0.45-0.3-0.82-0.64-1.11-1.01
			c-0.29-0.37-0.5-0.77-0.62-1.18l1.9-0.62c0.2,0.55,0.58,1.02,1.14,1.42c0.56,0.4,1.25,0.61,2.06,0.62c0.99,0,1.76-0.2,2.33-0.59
			c0.57-0.39,0.85-0.92,0.85-1.57c0-0.6-0.25-1.09-0.74-1.47S91.25,30.2,90.44,30l-1.62-0.42c-0.64-0.17-1.22-0.42-1.75-0.74
			c-0.53-0.32-0.94-0.73-1.25-1.22s-0.46-1.09-0.46-1.78c0-1.28,0.42-2.28,1.25-3c0.83-0.72,2.04-1.08,3.61-1.08
			c0.91,0,1.69,0.14,2.36,0.43s1.22,0.66,1.65,1.13c0.43,0.47,0.74,0.98,0.93,1.54l-1.9,0.64c-0.23-0.6-0.61-1.08-1.16-1.45
			c-0.55-0.37-1.22-0.55-2.02-0.55c-0.84,0-1.5,0.2-1.99,0.6c-0.49,0.4-0.73,0.95-0.73,1.64c0,0.59,0.19,1.04,0.57,1.35
			c0.38,0.31,0.89,0.55,1.53,0.71l1.62,0.4c1.31,0.32,2.32,0.85,3.03,1.59c0.71,0.74,1.07,1.55,1.07,2.43
			c0,0.76-0.19,1.44-0.57,2.05s-0.94,1.09-1.68,1.44C92.19,36.06,91.28,36.24,90.2,36.24z"/>
		<path d="M104.98,36.24c-1.36,0-2.57-0.31-3.62-0.92c-1.05-0.61-1.88-1.47-2.47-2.56C98.3,31.67,98,30.42,98,29.02
			c0-1.43,0.3-2.68,0.89-3.77c0.59-1.09,1.41-1.94,2.45-2.56s2.24-0.93,3.6-0.93c1.36,0,2.56,0.31,3.6,0.93s1.85,1.47,2.44,2.56
			c0.59,1.09,0.88,2.34,0.88,3.75c0,1.41-0.29,2.67-0.88,3.76c-0.59,1.09-1.4,1.95-2.43,2.56S106.33,36.24,104.98,36.24z M105,34.44
			c0.95,0,1.79-0.23,2.52-0.7s1.31-1.11,1.72-1.92s0.62-1.75,0.62-2.82c0-1.05-0.21-1.99-0.63-2.81c-0.42-0.82-1-1.46-1.74-1.93
			c-0.74-0.47-1.59-0.7-2.55-0.7s-1.81,0.23-2.56,0.7c-0.75,0.47-1.33,1.11-1.75,1.93C100.21,27.01,100,27.95,100,29
			c0,1.07,0.21,2.01,0.64,2.82s1.02,1.45,1.77,1.92C103.16,34.21,104.03,34.44,105,34.44z"/>
		<path d="M119.4,36l-5.74-14h2.1l5.6,14H119.4z M119.6,36l5.62-14h2.1l-5.74,14H119.6z"/>
		<path d="M127.62,36l5.64-14h2l-5.54,14H127.62z M130.28,32.26V30.5h8.06v1.76H130.28z M138.9,36l-5.54-14h2L141,36H138.9z"/>
	</g>
</g>
</svg>
