<svg xmlns="http://www.w3.org/2000/svg" viewBox="0 0 242.68 21.4" style="enable-background:new 0 0 242.68 21.4" xml:space="preserve">
  <path d="M1.78 17V3h8.42v1.8H3.74v4.16h5.82v1.76H3.74v4.48h6.5V17H1.78zM19.84 17.3c-1.08 0-2.03-.22-2.85-.67-.82-.45-1.46-1.07-1.91-1.88s-.68-1.74-.68-2.79V3h1.96v8.96c0 .69.15 1.31.45 1.84.3.53.71.95 1.24 1.24.53.29 1.14.44 1.83.44.69 0 1.31-.15 1.84-.44.53-.29.95-.71 1.24-1.24.29-.53.44-1.15.44-1.84V3h1.98v8.96c0 1.05-.23 1.98-.69 2.79s-1.11 1.43-1.94 1.88c-.83.45-1.8.67-2.91.67zM36.08 17.24c-1.41 0-2.67-.31-3.77-.93a6.681 6.681 0 0 1-2.58-2.56c-.62-1.09-.93-2.33-.93-3.73 0-1.43.31-2.68.93-3.77a6.681 6.681 0 0 1 2.58-2.56c1.1-.62 2.36-.93 3.77-.93.77 0 1.52.12 2.23.37s1.36.59 1.94 1.02 1.05.93 1.41 1.49l-1.58 1.04c-.27-.41-.61-.78-1.04-1.1s-.9-.57-1.41-.75c-.51-.18-1.03-.27-1.55-.27-1.03 0-1.94.23-2.73.7a5.07 5.07 0 0 0-1.87 1.92c-.45.81-.68 1.76-.68 2.84 0 1.05.22 1.99.67 2.8.45.81 1.07 1.45 1.88 1.92.81.47 1.73.7 2.77.7.84 0 1.59-.17 2.25-.52a3.92 3.92 0 0 0 1.56-1.46c.38-.63.57-1.35.57-2.18l1.9-.18c0 1.24-.27 2.32-.81 3.24s-1.28 1.63-2.23 2.14c-.95.51-2.04.76-3.28.76zm1.02-5.84V9.76h5.3v1.44l-1 .2h-4.3zM45.84 17V3h8.42v1.8H47.8v4.16h5.82v1.76H47.8v4.48h6.5V17h-8.46zM58.66 17V3h2.02l7.92 10.72V3h1.98v14H68.6L60.62 6.18V17h-1.96zM75.14 17V3h1.96v14h-1.96zM80.06 17 85.7 3h2l-5.54 14h-2.1zm2.66-3.74V11.5h8.06v1.76h-8.06zM91.34 17 85.8 3h2l5.64 14h-2.1zM102.28 17V3h1.9v14h-1.9zm1.28-4.44-.58-2.08L110.12 3h2.5l-9.06 9.56zm6.9 4.44-5.7-7.12 1.34-1.24 6.78 8.36h-2.42zM121.02 17.3c-1.08 0-2.03-.22-2.85-.67-.82-.45-1.46-1.07-1.91-1.88s-.68-1.74-.68-2.79V3h1.96v8.96c0 .69.15 1.31.45 1.84.3.53.71.95 1.24 1.24.53.29 1.14.44 1.83.44s1.31-.15 1.84-.44c.53-.29.95-.71 1.24-1.24.29-.53.44-1.15.44-1.84V3h1.98v8.96c0 1.05-.23 1.98-.69 2.79s-1.11 1.43-1.94 1.88c-.84.45-1.81.67-2.91.67zM130 17v-1.84l8.48-10.32h-8.42V3H141v1.84l-8.48 10.32h8.42V17H130zM144.66 17V3h2.02l7.92 10.72V3h1.98v14h-1.98l-7.98-10.82V17h-1.96zM161.14 17V3h8.42v1.8h-6.46v4.16h5.82v1.76h-5.82v4.48h6.5V17h-8.46zM176.8 17V4.8h-4.38V3h10.74v1.8h-4.38V17h-1.98zM190.7 17.24c-.75 0-1.42-.09-2.03-.26-.61-.17-1.13-.41-1.58-.71-.45-.3-.82-.64-1.11-1.01-.29-.37-.5-.77-.62-1.18l1.9-.62c.2.55.58 1.02 1.14 1.42.56.4 1.25.61 2.06.62.99 0 1.76-.2 2.33-.59.57-.39.85-.92.85-1.57 0-.6-.25-1.09-.74-1.47s-1.15-.67-1.96-.87l-1.62-.42a6.68 6.68 0 0 1-1.75-.74c-.53-.32-.94-.73-1.25-1.22s-.46-1.09-.46-1.78c0-1.28.42-2.28 1.25-3 .83-.72 2.04-1.08 3.61-1.08.91 0 1.69.14 2.36.43s1.22.66 1.65 1.13c.43.47.74.98.93 1.54l-1.9.64c-.23-.6-.61-1.08-1.16-1.45-.55-.37-1.22-.55-2.02-.55-.84 0-1.5.2-1.99.6-.49.4-.73.95-.73 1.64 0 .59.19 1.04.57 1.35.38.31.89.55 1.53.71l1.62.4c1.31.32 2.32.85 3.03 1.59.71.74 1.07 1.55 1.07 2.43 0 .76-.19 1.44-.57 2.05s-.94 1.09-1.68 1.44c-.74.35-1.65.53-2.73.53zM205.48 17.24c-1.36 0-2.57-.31-3.62-.92a6.474 6.474 0 0 1-2.47-2.56c-.59-1.09-.89-2.34-.89-3.74 0-1.43.3-2.68.89-3.77.59-1.09 1.41-1.94 2.45-2.56s2.24-.93 3.6-.93c1.36 0 2.56.31 3.6.93s1.85 1.47 2.44 2.56c.59 1.09.88 2.34.88 3.75 0 1.41-.29 2.67-.88 3.76-.59 1.09-1.4 1.95-2.43 2.56s-2.23.92-3.57.92zm.02-1.8c.95 0 1.79-.23 2.52-.7s1.31-1.11 1.72-1.92.62-1.75.62-2.82c0-1.05-.21-1.99-.63-2.81-.42-.82-1-1.46-1.74-1.93s-1.59-.7-2.55-.7-1.81.23-2.56.7-1.33 1.11-1.75 1.93c-.42.82-.63 1.76-.63 2.81 0 1.07.21 2.01.64 2.82s1.02 1.45 1.77 1.92 1.61.7 2.59.7zM219.9 17l-5.74-14h2.1l5.6 14h-1.96zm.2 0 5.62-14h2.1l-5.74 14h-1.98zM228.12 17l5.64-14h2l-5.54 14h-2.1zm2.66-3.74V11.5h8.06v1.76h-8.06zM239.4 17l-5.54-14h2l5.64 14h-2.1z"/>
</svg>
