<svg width="128" height="128" viewBox="0 0 128 128" fill="none" xmlns="http://www.w3.org/2000/svg">
<g clip-path="url(#clip0_202_4)">
<rect width="128" height="128" fill="#BDABAA"/>
<path d="M25.184 128V66.4H61.616V73.176H32.664V93.064H59.064V99.752H32.664V121.224H61.792V128H25.184ZM100.758 129.056C94.4808 129.056 88.9368 127.707 84.1261 125.008C79.3155 122.251 75.5315 118.496 72.7741 113.744C70.0755 108.933 68.7261 103.448 68.7261 97.288C68.7261 91.0107 70.0755 85.496 72.7741 80.744C75.5315 75.9333 79.3155 72.1787 84.1261 69.48C88.9368 66.7227 94.4808 65.344 100.758 65.344C104.043 65.344 107.241 65.9013 110.35 67.016C113.459 68.072 116.305 69.5387 118.886 71.416C121.467 73.2933 123.55 75.4347 125.134 77.84L119.238 81.888C118.065 80.0107 116.481 78.3387 114.486 76.872C112.491 75.3467 110.291 74.1733 107.886 73.352C105.539 72.5307 103.163 72.12 100.758 72.12C96.0061 72.12 91.7821 73.2053 88.0861 75.376C84.3901 77.488 81.4861 80.4213 79.3741 84.176C77.2621 87.9307 76.2061 92.3013 76.2061 97.288C76.2061 102.099 77.2328 106.411 79.2861 110.224C81.3981 113.979 84.3021 116.941 87.9981 119.112C91.7528 121.283 96.0061 122.368 100.758 122.368C104.747 122.368 108.267 121.547 111.318 119.904C114.427 118.203 116.862 115.885 118.622 112.952C120.382 109.96 121.262 106.528 121.262 102.656L128.39 102.128C128.39 107.525 127.217 112.248 124.87 116.296C122.523 120.285 119.267 123.424 115.102 125.712C110.937 127.941 106.155 129.056 100.758 129.056ZM106.126 103.008V96.584H128.39V102.392L124.87 103.008H106.126Z" fill="white"/>
</g>
<defs>
<clipPath id="clip0_202_4">
<rect width="128" height="128" fill="white"/>
</clipPath>
</defs>
</svg>
